<svg xmlns="http://www.w3.org/2000/svg" xmlns:xlink="http://www.w3.org/1999/xlink" viewBox="14.67 7.02 69.92 86.08"
  xmlns:v="https://vecta.io/nano">
  <use xlink:href="#B" />
  <use xlink:href="#B" x="-23.774" />
  <path
    d="M20.401 32.652v49.64c0 2.934 1.076 5.689 2.955 7.666a9.92 9.92 0 0 0 7.199 3.113h38.121a9.92 9.92 0 0 0 7.199-3.113c1.879-1.977 2.955-4.732 2.955-7.666v-49.64a7.7 7.7 0 0 0-1.975-15.135H66.539v-2.518c.012-2.118-.826-4.152-2.325-5.648s-3.536-2.328-5.654-2.311H40.67c-2.118-.017-4.155.815-5.654 2.311s-2.337 3.53-2.325 5.648v2.518H22.375a7.7 7.7 0 0 0-1.975 15.135zm48.275 56.39H30.555c-3.445 0-6.125-2.959-6.125-6.75V32.829H74.8v49.463c0 3.79-2.68 6.75-6.125 6.75zM36.72 14.998a3.88 3.88 0 0 1 3.949-3.929h17.891a3.88 3.88 0 0 1 2.806 1.129c.745.74 1.157 1.75 1.144 2.799v2.518H36.72zm-14.345 6.548h54.48c2.003 0 3.627 1.624 3.627 3.627S78.858 28.8 76.855 28.8h-54.48c-2.003 0-3.627-1.624-3.627-3.627s1.624-3.627 3.627-3.627zm0 0" />
  <use xlink:href="#B" x="-11.887" />
  <defs>
    <path id="B"
      d="M61.502 38.21c-1.113 0-2.015.902-2.015 2.015v38.08c0 1.112.902 2.015 2.015 2.015s2.015-.903 2.015-2.015v-38.08c0-1.113-.902-2.015-2.015-2.015zm0 0" />
  </defs>
</svg>
