<svg className="folder-icon" version="1.1" xmlns="http://www.w3.org/2000/svg" xmlns:cc="http://creativecommons.org/ns#" xmlns:dc="http://purl.org/dc/elements/1.1/" xmlns:rdf="http://www.w3.org/1999/02/22-rdf-syntax-ns#" viewBox="21 1.17 56 95.25">
  <path d="m75.449 45.091-42.372-42.371c-0.98001-0.98078-2.2882-1.5211-3.6832-1.5211-1.3949 0-2.7032 0.54032-3.6832 1.5211l-3.1204 3.1196c-2.0305 2.0328-2.0305 5.3366 0 7.3663l35.581 35.581-35.62 35.62c-0.98 0.98078-1.5211 2.2882-1.5211 3.6824 0 1.3957 0.5411 2.7031 1.5211 3.6847l3.1204 3.1188c0.98079 0.98078 2.2882 1.5211 3.6832 1.5211 1.3949 0 2.7031-0.54032 3.6832-1.5211l42.411-42.41c0.98233-0.98388 1.5219-2.2975 1.5188-3.694 0.0029-1.4019-0.53646-2.7148-1.5188-3.6979z" stroke-width=".19352"/>
</svg>