<svg className="folder-icon" version="1.1" xmlns="http://www.w3.org/2000/svg" xmlns:cc="http://creativecommons.org/ns#" xmlns:dc="http://purl.org/dc/elements/1.1/" xmlns:rdf="http://www.w3.org/1999/02/22-rdf-syntax-ns#" viewBox="5.9 21.02 85.3 50.37">
  <path d="m89.807 25.245-2.7921-2.8115c-0.87871-0.87802-2.0478-1.3617-3.2972-1.3617-1.2488 0-2.4192 0.48371-3.2979 1.3617l-31.85 31.851-31.887-31.887c-0.87732-0.87802-2.0478-1.361-3.2966-1.361s-2.4199 0.48301-3.2979 1.361l-2.7928 2.7941c-1.8184 1.817-1.8184 4.7768 0 6.5938l37.965 38.101c0.87733 0.87733 2.0464 1.4955 3.3063 1.4955h0.01455c1.2495 0 2.4185-0.61884 3.2959-1.4955l37.929-37.998c0.87871-0.87732 1.361-2.0817 1.3624-3.3305 0-1.2495-0.48371-2.4372-1.3624-3.3139z" stroke-width=".17325"/>
</svg>