<svg xmlns="http://www.w3.org/2000/svg" viewBox="7.18 4.9 88.13 87.68" xmlns:v="https://vecta.io/nano">
  <path
    d="M88.501 59.921c-1.212 0-2.194.982-2.194 2.194v19.478a6.59 6.59 0 0 1-6.581 6.581H18.172a6.59 6.59 0 0 1-6.581-6.581V24.426a6.59 6.59 0 0 1 6.581-6.581H37.65c1.212 0 2.194-.982 2.194-2.194s-.982-2.194-2.194-2.194H18.172c-6.055.007-10.962 4.914-10.969 10.969v57.167c.007 6.055 4.914 10.962 10.969 10.969h61.554c6.055-.007 10.962-4.914 10.969-10.969V62.115c0-1.212-.982-2.194-2.194-2.194zm1.325-52.108c-3.855-3.855-10.106-3.855-13.961 0L36.727 46.951c-.268.268-.462.601-.563.966l-5.147 18.581a2.19 2.19 0 0 0 .562 2.137c.559.559 1.375.774 2.137.563l18.581-5.148c.365-.101.698-.295.966-.563L92.4 24.348c3.849-3.858 3.849-10.103 0-13.961zM41.507 48.377l32.031-32.032 10.33 10.33-32.032 32.032zm-2.063 4.141l8.253 8.254-11.416 3.163zm49.854-31.271l-2.327 2.327L76.64 13.242l2.327-2.327c2.141-2.141 5.614-2.141 7.755 0l2.575 2.574c2.138 2.144 2.138 5.614 0 7.757zm0 0" />
  <defs /></svg>
