<?xml version="1.0" encoding="UTF-8"?>
<svg className="folder-icon" version="1.1" viewBox="1.82 1.72 20.53 17.38" xmlns="http://www.w3.org/2000/svg"
  xmlns:cc="http://creativecommons.org/ns#" xmlns:dc="http://purl.org/dc/elements/1.1/"
  xmlns:rdf="http://www.w3.org/1999/02/22-rdf-syntax-ns#">
  <metadata>
    <rdf:RDF>
      <cc:Work rdf:about="">
        <dc:format>image/svg+xml</dc:format>
        <dc:type rdf:resource="http://purl.org/dc/dcmitype/StillImage" />
      </cc:Work>
    </rdf:RDF>
  </metadata>
  <path
    d="m19.814 4.8897h-6.4918c-0.26352 0-0.52091-0.1082-0.69866-0.29212l-2.0256-2.1338c-0.4869-0.48534-1.1531-0.73884-1.8278-0.73495h-4.4128c-1.3934-3.95e-5 -2.5272 1.1337-2.5272 2.5271v12.304c0 1.3934 1.1338 2.5272 2.5272 2.5272h15.468c1.3927-0.0062 2.5218-1.1453 2.5156-2.5349v-9.1349c0-1.3934-1.1338-2.5271-2.5272-2.5271zm0.98153 11.665c0.0023 0.54098-0.43586 0.98381-0.97375 0.98614h-15.464c-0.54098 0-0.98149-0.44051-0.98149-0.98149v-12.304c0-0.54098 0.44051-0.98149 0.98149-0.98229h4.433 0.025519c0.25811 0 0.50853 0.1028 0.67699 0.26973l2.0148 2.1237c0.47296 0.48842 1.1345 0.7682 1.8146 0.7682h6.4918c0.54098 0 0.98149 0.44051 0.98149 0.98149v9.1381z"
    stroke-width=".040061" />
</svg>
